# xmcd CD database file
#
# Track frame offsets:
#	150
#	15732
#	36194
#	51514
#	65478
#	88613
#	100725
#	113857
#	130141
#	143783
#	159118
#	174865
#	194059
#	220224
#
# Disc length: 3211 seconds
#
# Revision: 0
# Processed by: cddbd v1.5.1PL0 Copyright (c) Steve Scherf et al.
# Submitted via: cdripper 1,0,15,908
#
DISCID=c10c890e
DTITLE=Shelley Campbell - Blue Ridge Reveille
DYEAR=2004
DGENRE=Country
TTITLE0=Drivin You
TTITLE1=Is It You
TTITLE2=Typical Truckstop
TTITLE3=Unsatisfied
TTITLE4=New Year's Eve at the Legion
TTITLE5=A Waltz
TTITLE6=Dreamin
TTITLE7=Beautiful Child
TTITLE8=Porchswing
TTITLE9=Nightsong
TTITLE10=Simple Prayer
TTITLE11=No Fear
TTITLE12=Blue Ridge Reveille
TTITLE13=Is It You? [Duet]
EXTD=YEAR: 2004
EXTT0=
EXTT1=
EXTT2=
EXTT3=
EXTT4=
EXTT5=
EXTT6=
EXTT7=
EXTT8=
EXTT9=
EXTT10=
EXTT11=
EXTT12=
EXTT13=
PLAYORDER=
